<?xml version="1.0" encoding="utf-8"?>
<!-- Generator: Adobe Illustrator 25.3.1, SVG Export Plug-In . SVG Version: 6.00 Build 0)  -->
<svg version="1.1" id="Layer_1" xmlns="http://www.w3.org/2000/svg" xmlns:xlink="http://www.w3.org/1999/xlink" x="0px" y="0px"
	 viewBox="0 0 156.1 131.8" style="enable-background:new 0 0 156.1 131.8;" xml:space="preserve">
<style type="text/css">
	.st0{fill:#808184;}
	.st1{fill:#595A5C;}
	.st2{clip-path:url(#SVGID_2_);}
	.st3{fill:url(#path10283_1_);}
	.st4{fill:#231F20;}
	.st5{fill:#424143;}
	.st6{fill:#6E6F72;}
	.st7{fill:#8B8B8C;}
</style>
<rect x="1" y="13.9" class="st0" width="28.4" height="9.4"/>
<rect x="1" y="1" class="st1" width="28.4" height="9.5"/>
<path class="st0" d="M57.9,12.5h-0.2v3.3l-0.2-0.1h-0.1c-0.4-0.1-0.9-0.2-1.3-0.2c-2.8,0-3.3,2.1-3.3,3.8c0,2.4,1.3,3.8,3.7,3.8
	c0.8,0,1.7-0.1,2.5-0.3c0.6,0,1-0.5,0.9-1.1c0,0,0-0.1,0-0.1v-9.5C59.2,12.3,58.6,12.4,57.9,12.5z M57.7,21.4L57.7,21.4
	c-0.4,0.1-0.7,0.1-1,0.1c-0.7,0-1.6-0.4-1.6-2.2c0-0.9,0.2-2.1,1.5-2.1l0,0c0.3,0,0.7,0.1,1,0.2h0.1V21.4z"/>
<path class="st0" d="M65,15.5c-1,0-1.9,0.2-2.8,0.5l-0.7,0.2l0.2,1.6l0.7-0.2c0.7-0.2,1.5-0.4,2.3-0.4c0.3,0,1.2,0,1.2,1v0.4h-1.3
	c-2.3,0-3.4,0.7-3.4,2.4c0,1.4,1,2.2,2.7,2.2c0.6,0,1.3-0.1,1.9-0.3H66c0.7,0.1,1.3,0.2,2,0.4V18C68,16.4,67,15.5,65,15.5z
	 M65.9,21.5L65.9,21.5l-0.5,0.1c-0.3,0.1-0.7,0.2-1,0.2c-0.6,0-1-0.3-1-0.9c0-0.4,0.2-1,1.2-1H66L65.9,21.5L65.9,21.5z"/>
<path class="st0" d="M48.6,15.5c-1,0-1.9,0.2-2.8,0.5l-0.7,0.2l0.2,1.6l0.7-0.2c0.7-0.2,1.5-0.4,2.3-0.4c0.3,0,1.2,0,1.2,1v0.4h-1.3
	c-2.3,0-3.4,0.7-3.4,2.4c0,1.4,1,2.2,2.7,2.2c0.6,0,1.3-0.1,1.9-0.3h0.2c0.7,0.1,1.3,0.2,2,0.4V18C51.7,16.4,50.6,15.5,48.6,15.5z
	 M49.5,21.5l-0.4,0.1c-0.3,0.1-0.7,0.2-1,0.2c-0.6,0-1-0.3-1-0.9c0-0.4,0.2-1,1.2-1h1.4v1.5l0,0L49.5,21.5z"/>
<path class="st0" d="M40.7,15.5c-0.8,0-1.6,0.2-2.3,0.5h-0.1l-0.1-0.1c-0.6-0.4-1.3-0.5-2-0.5c-0.8,0-1.6,0.1-2.4,0.4
	c-0.6,0.1-1,0.6-1,1.2v6H35v-5.5h0.1c0.3-0.1,0.7-0.2,1-0.2c0.5-0.1,0.9,0.3,1,0.8c0,0.1,0,0.1,0,0.2V23h2.2v-4.8
	c0-0.2-0.1-0.3-0.1-0.5l-0.1-0.1l0.2-0.1c0.3-0.2,0.7-0.2,1.1-0.2c0.5,0,1,0.3,1,0.9c0,0,0,0.1,0,0.1V23h2.2v-5
	C43.6,16.4,42.7,15.5,40.7,15.5L40.7,15.5z"/>
<path class="st0" d="M64.3,1L64.3,1c-1.3,0-2.7,0.4-3.1,1c-0.3,0.4-0.4,0.8-0.4,1.3v3.3c0,0.1,0,0.3-0.1,0.4l-0.1,0.1h-4.1V4.9l0,0
	c-0.1-2.4-1.5-3.8-3.6-3.8h-2c-0.1,0.5-0.2,1.1-0.2,1.6h2c1.1,0,1.6,0.9,1.6,2.3v2.3l-0.1-0.1c-0.2-0.1-0.3-0.1-0.5-0.1h-3.5
	C50,7.6,50,8.2,50,8.7h10.8c0.4-0.1,0.8-0.1,1.2-0.2c0.7,0.3,1.5,0.4,2.3,0.4c2.1,0.1,3.8-1.5,3.9-3.6c0-0.1,0-0.3,0-0.4
	C68.2,2.8,66.4,1,64.3,1z M64.3,7.2c-0.4,0-0.9,0-1.3-0.1h-0.1V3.9c0-0.3,0-0.4-0.1-0.5l-0.1-0.1l0.1-0.1h0.1c0.1,0,0.1,0,0.2-0.1
	h0.1C63.6,3,64,3,64.4,3l0,0c1.4,0,1.5,1.2,1.5,2.1C65.9,6.8,65,7.2,64.3,7.2z"/>
<path class="st0" d="M45.3,9.8L45.3,9.8c2.4,0,3.5-0.8,3.5-2.7c0-1.4-1.1-2.5-2.4-2.5c-0.1,0-0.2,0-0.3,0h-2.2c-0.5,0-1-0.4-1-0.9
	c0,0,0-0.1,0-0.1c0-0.4,0.2-0.9,1.2-0.9h4.7C48.9,2.2,49,1.6,49,1.1h-4.9c-2.3,0-3.4,1-3.4,2.6s1,2.4,2.7,2.4h2.2c0.6,0,1,0.4,1,1
	c0,0,0,0.1,0,0.1c0,0.6-0.4,1.1-1,1.1c-0.1,0-0.1,0-0.2,0h-8.5c-1.1,0-1.8-0.6-1.8-2v-1c0-1.5,0.6-2.4,1.8-2.4H39
	c0.1-0.5,0.2-1.1,0.2-1.6h-2.8c-2.1,0-3.5,1.4-3.6,3.9l0,0v1.1c0.1,2.5,1.5,3.6,3.6,3.6h8.9V9.8z"/>
<g id="layer1">
	<g id="g10267">
		<g>
			<defs>
				<path id="SVGID_1_" d="M117.2,62.1c0,3,2.5,4.5,5,6c2,1,3,1.5,3,2.5c0,1.5-1.5,2-3.5,2c-2.5,0-4.5-0.5-5.5-1.5l-1.5,5
					c1.9,0.7,4,1,6,1c5.5,0,9.5-3,9.5-7c0-5.5-7.5-6-7.5-8.5c0-1,0.5-1.5,2.5-2c1.9,0,3.7,0.3,5.5,1l1-4.5c-1.6-0.6-3.3-1-5-1
					C120.7,55.2,117.2,58.2,117.2,62.1 M140.6,55.7c-1.1,0-2,0.6-2.5,1.5l-8,19.4h5.5l1-3h7l0.5,3h5l-4.5-20.9L140.6,55.7
					 M141.1,61.2l1.5,8h-4.4L141.1,61.2 M110.2,55.6l-4.5,20.9h5.5l4.5-20.9L110.2,55.6 M101.7,55.6l-5.4,14.5l-2.5-12
					c-0.3-1.2-1.3-2-2.5-2h-9.5v0.5c1.9,0.4,3.8,1,5.5,2c1,0.5,1,1,1.5,2l4.5,17h6l9-20.9L101.7,55.6"/>
			</defs>
			<clipPath id="SVGID_2_">
				<use xlink:href="#SVGID_1_"  style="overflow:visible;"/>
			</clipPath>
			<g class="st2">
				<g id="g10269">
					<g id="g10275">
						
							<linearGradient id="path10283_1_" gradientUnits="userSpaceOnUse" x1="-442.6993" y1="395.3958" x2="-442.5693" y2="395.3958" gradientTransform="matrix(2092.1101 -770.48 770.48 2092.1101 621621.1875 -1168227.25)">
							<stop  offset="0" style="stop-color:#6E6F72"/>
							<stop  offset="1" style="stop-color:#595A5C"/>
						</linearGradient>
						<path id="path10283" class="st3" d="M74.9,57.7l66.3-24.5l15,40.9L89.8,98.5"/>
					</g>
				</g>
			</g>
		</g>
	</g>
</g>
<g id="Layer_2_1_">
	<g id="Layer_1-2">
		<path class="st0" d="M8.7,81.1H8.5c-0.6,0-1.1,0.2-1.4,0.7c-0.3-0.5-0.8-0.8-1.4-0.7c-0.5,0-0.9,0.2-1.2,0.6v-0.5H3.6v4.1h0.9
			v-2.2c-0.1-0.5,0.3-1,0.8-1.1h0.2c0.6,0,0.9,0.4,0.9,1.1v2.3h0.9v-2.3c-0.1-0.5,0.3-1,0.8-1.1h0.2c0.6,0,0.9,0.4,0.9,1.1v2.3h0.9
			v-2.6C10.1,82,9.5,81.2,8.7,81.1z M23.3,84.3c-0.2,0.1-0.5,0.2-0.8,0.2c-0.4,0-0.6-0.3-0.6-0.7v-1.9h1.5v-0.8h-1.5v-1.2H21v1.2
			h-0.8v0.8H21v1.9c0,0.9,0.4,1.5,1.4,1.5c0.4,0,0.8-0.1,1.1-0.3L23.3,84.3z M30.9,81.1L30.9,81.1c-0.4,0-0.9,0.2-1.1,0.6v-0.5h-0.9
			v4.1h0.9V83c0-0.7,0.3-1.1,0.9-1.1c0.2,0,0.4,0,0.6,0.1l0.3-0.9L30.9,81.1z M18.1,82.9l-0.4-0.1c-0.4-0.1-0.7-0.1-0.7-0.4
			s0.3-0.5,0.8-0.5c0.5,0,0.9,0.1,1.3,0.4l0.4-0.7c-0.5-0.3-1.1-0.4-1.7-0.4c-1,0-1.7,0.5-1.7,1.3s0.5,1.1,1.4,1.2l0.4,0.1
			c0.5,0.1,0.7,0.2,0.7,0.4s-0.3,0.5-0.9,0.5c-0.5,0-1-0.1-1.4-0.4L15.9,85c0.5,0.4,1.2,0.6,1.8,0.5c1.2,0,1.9-0.6,1.9-1.3
			C19.6,83.3,19,83,18.1,82.9z M43.3,81.1L43.3,81.1c-0.5,0-0.9,0.2-1.1,0.6v-0.5h-0.9v4.1h0.9V83c0-0.7,0.3-1.1,0.9-1.1
			c0.2,0,0.4,0,0.6,0.1l0.3-0.9L43.3,81.1z M34,84.6c-0.7-0.1-1.2-0.7-1.2-1.4c0.1-0.6,0.6-1.1,1.2-1.2c0.4,0,0.8,0.1,1.1,0.4
			l0.4-0.7c-0.4-0.3-1-0.5-1.5-0.5c-1.1-0.1-2.1,0.8-2.2,1.9v0.2l0,0c-0.1,1.1,0.8,2,1.9,2.1c0,0,0.1,0,0.1,0H34
			c0.5,0,1.1-0.1,1.5-0.5l-0.4-0.7C34.8,84.4,34.4,84.5,34,84.6z M39.3,81.2v0.5c-0.3-0.4-0.8-0.6-1.3-0.6c-1.2,0-2.1,0.9-2.1,2.1
			c0,1.2,0.9,2.1,2.1,2.1c0.5,0,1-0.2,1.3-0.6v0.5h0.9v-4.1L39.3,81.2L39.3,81.2z M39.3,83.4c0,0.6-0.6,1.2-1.2,1.2
			c-0.6,0-1.2-0.5-1.2-1.1c0,0,0-0.1,0-0.1v-0.1c0-0.7,0.6-1.2,1.2-1.2S39.3,82.7,39.3,83.4L39.3,83.4z M28.1,83.3
			c0.1-1-0.6-2-1.7-2.1c-0.1,0-0.1,0-0.2,0l0,0c-1.2,0-2.1,1-2.1,2.2c0,1.2,1,2.1,2.2,2.1h0.1c0.6,0,1.2-0.2,1.6-0.6l-0.4-0.7
			c-0.3,0.3-0.8,0.4-1.2,0.4c-0.6,0.1-1.1-0.3-1.2-0.9c0,0,0-0.1,0-0.1h3v-0.3L28.1,83.3z M27.1,82.9H25c0-0.6,0.4-1,1-1
			c0,0,0.1,0,0.1,0l0,0c0.5,0,1,0.4,1,0.9C27.1,82.8,27.1,82.9,27.1,82.9z M47.5,79.6v2.1c-0.3-0.4-0.8-0.6-1.3-0.6
			c-1.2,0-2.1,0.9-2.1,2.1s0.9,2.1,2.1,2.1c0,0,0,0,0,0c0.5,0,1-0.2,1.3-0.6v0.5h0.9v-5.7L47.5,79.6L47.5,79.6z M47.6,83.4
			c0,0.7-0.5,1.2-1.2,1.2c-0.6,0-1.2-0.5-1.2-1.1c0,0,0-0.1,0-0.1v-0.1c0-0.7,0.6-1.2,1.2-1.2S47.6,82.7,47.6,83.4L47.6,83.4z
			 M49.9,85.2C50,85.2,50,85.1,49.9,85.2L49.9,85.2L50,85h-0.3v0.4h0.1v-0.1h0.1v0.1H50L49.9,85.2z M49.9,85.1L49.9,85.1L49.9,85.1
			L49.9,85.1z M49.9,85.2C50,85.2,50,85.1,49.9,85.2L49.9,85.2L50,85h-0.3v0.4h0.1v-0.1h0.1v0.1H50L49.9,85.2z M49.9,85.1L49.9,85.1
			L49.9,85.1L49.9,85.1z M50.3,85L50.3,85l-0.2-0.2h-0.4c-0.1,0-0.1,0-0.1,0.1L49.5,85v0.3c0.1,0.2,0.2,0.2,0.4,0.2h0.2
			c0.1,0,0.1,0,0.1-0.1l0.1-0.1L50.3,85z M50.1,85.3C50.1,85.4,50,85.4,50.1,85.3c-0.1,0.1-0.1,0.1-0.2,0.1h-0.1
			c-0.1,0-0.1,0-0.1-0.1c-0.1-0.1-0.1-0.3,0-0.4l0.1-0.1H50c0.1,0,0.1,0,0.1,0.1C50.2,85,50.2,85.2,50.1,85.3z M50,85.1L50,85.1
			v-0.2h-0.3v0.4h0.1v-0.1l0,0l0.1,0.1H50C50,85.3,50,85.1,50,85.1z M49.9,85.1L49.9,85.1L49.9,85.1L49.9,85.1z M49.9,85.2
			C50,85.2,50,85.1,49.9,85.2L49.9,85.2L50,85h-0.3v0.4h0.1v-0.1h0.1v0.1H50L49.9,85.2z M49.9,85.1L49.9,85.1L49.9,85.1L49.9,85.1z
			 M49.9,85.2C50,85.2,50,85.1,49.9,85.2L49.9,85.2L50,85h-0.3v0.4h0.1v-0.1h0.1v0.1H50L49.9,85.2z M49.9,85.1L49.9,85.1L49.9,85.1
			L49.9,85.1z M14.2,81.2v0.5c-0.3-0.4-0.8-0.6-1.3-0.6c-1.2,0-2.1,0.9-2.1,2.1s0.9,2.1,2.1,2.1c0,0,0,0,0,0c0.5,0,1-0.2,1.3-0.6
			v0.5h0.9v-4.1L14.2,81.2L14.2,81.2z M14.2,83.4c0,0.7-0.5,1.2-1.2,1.2c-0.7,0-1.2-0.5-1.3-1.2v-0.1l0,0c0-0.7,0.6-1.2,1.3-1.2
			c0,0,0,0,0,0c0.6,0,1.2,0.4,1.2,1C14.2,83.2,14.2,83.3,14.2,83.4z"/>
		<g id="_Group_">
			<rect x="19.2" y="50.1" class="st4" width="13.5" height="24.2"/>
			<path id="_Path_" class="st0" d="M20,62.2c0-4.7,2.2-9.2,5.9-12.1C19.2,44.9,9.5,46,4.3,52.7S0.2,69.1,6.9,74.3
				c5.6,4.4,13.4,4.4,19,0C22.2,71.4,20,66.9,20,62.2z"/>
			<path class="st5" d="M50.8,62.2c0,8.5-6.9,15.4-15.4,15.4c-3.4,0-6.8-1.2-9.5-3.3c6.7-5.3,7.8-14.9,2.6-21.6
				c-0.8-1-1.6-1.8-2.6-2.6c6.7-5.2,16.4-4.1,21.6,2.6C49.6,55.4,50.8,58.8,50.8,62.2L50.8,62.2z"/>
			<path class="st5" d="M49,71.1L49,71.1l0.2,0.1v0.5h0.1v-0.5h0.2v-0.1L49,71.1z M50.2,71.1L50,71.5l-0.2-0.4h-0.1v0.6h0.1v-0.4
				l0.2,0.4h0.1l0.2-0.4v0.5h0.1v-0.6h-0.2L50.2,71.1z"/>
		</g>
	</g>
</g>
<path class="st5" d="M127,16.9V6.5h1.8v0.8c0.5-0.7,1.4-1.1,2.3-1c2,0,3.6,1.7,3.5,3.7c0,0.1,0,0.2,0,0.2c0,2.3-1.5,4-3.5,4
	c-0.9,0-1.8-0.4-2.3-1.1v3.7H127V16.9z M128.7,9.3v1.9c0.3,0.8,1.1,1.3,2,1.3c1.1,0,2-0.9,2-2c0-0.1,0-0.2,0-0.3
	c0.2-1.1-0.6-2.1-1.7-2.3c-0.1,0-0.2,0-0.3,0C129.8,7.9,129,8.5,128.7,9.3"/>
<path class="st5" d="M135.7,11.8c0-1.2,0.9-2.2,2.1-2.3l3-0.4V8.7c0-0.5-0.2-0.7-0.7-0.7h-3.8V6.4h3.8c1.5,0,2.4,0.7,2.4,2.1v5.4
	h-1.8V13c-0.6,0.7-1.5,1.2-2.5,1.1c-1.2,0.2-2.3-0.7-2.5-1.9C135.7,12.1,135.7,11.9,135.7,11.8 M138.7,12.8c0.9,0,1.7-0.5,2-1.3
	v-0.9l-2.3,0.3c-0.6,0.1-1,0.4-1,1C137.5,12.5,138.1,12.9,138.7,12.8"/>
<path class="st5" d="M143.8,15.3h1.3c0.5,0,0.7-0.2,0.9-0.7l0.2-0.7l-2.7-7.5h1.8l1.7,5.2l0,0l1.6-5.2h1.8l-3,8.6
	c-0.4,1.2-0.9,1.8-2.3,1.8h-1.4L143.8,15.3L143.8,15.3z"/>
<path class="st6" d="M90,22c1.8,0.1,3.5-0.5,4.9-1.7c0.8-0.8,1.3-2,1.3-3.2c0-1.1-0.4-2.2-1.2-3c-0.9-0.9-2.1-1.5-3.4-1.7l-2.4-0.5
	c-1-0.2-1.5-0.7-1.5-1.4c0-0.9,0.9-1.5,2.2-1.5c0.8,0,1.5,0.3,2.1,0.8c0.3,0.4,0.5,0.8,0.6,1.3l3.4-0.8c-0.1-1-0.6-1.9-1.3-2.6
	c-1.3-1.2-3.1-1.9-4.9-1.8c-1.6-0.1-3.3,0.5-4.5,1.6c-0.9,0.9-1.4,2.1-1.4,3.3c0,1,0.4,2,1.1,2.8c0.9,0.8,2,1.4,3.2,1.6l2.3,0.6
	c1.2,0.3,1.7,0.7,1.7,1.5s-0.9,1.5-2.3,1.5c-0.9,0-1.8-0.3-2.4-0.9c-0.4-0.4-0.6-0.9-0.6-1.4l-3.5,0.8c0.1,1,0.6,2,1.3,2.7
	C86.1,21.3,88,22.1,90,22 M115.9,22c3.2,0.2,6.2-2,7-5.1l-3.6-1.2c-0.2,0.6-0.5,1.1-0.9,1.6c-0.7,0.6-1.6,1-2.5,0.9
	c-1,0-2-0.4-2.7-1.1c-0.8-0.9-1.2-2-1.1-3.2c-0.1-1.2,0.3-2.3,1.1-3.2c0.7-0.7,1.7-1.1,2.7-1.1c0.9,0,1.8,0.3,2.4,0.9
	c0.4,0.4,0.7,1,0.9,1.6l3.7-1.2c-0.3-1.1-0.9-2.1-1.7-3c-1.4-1.4-3.4-2.2-5.4-2.1c-2.1,0-4.1,0.8-5.6,2.2c-1.5,1.5-2.3,3.6-2.3,5.8
	c0,2.2,0.8,4.2,2.3,5.8C111.6,21.2,113.7,22.1,115.9,22 M103.5,22c1.1,0.1,2.3-0.3,3.2-0.9v-3.3c-0.6,0.4-1.4,0.6-2.1,0.6
	c-0.5,0-1.1-0.1-1.5-0.5c-0.4-0.4-0.5-1-0.5-1.5v-14h-4.1v4.1h8.1v3.9h-8.1v7c-0.1,1.2,0.3,2.4,1.2,3.3
	C100.7,21.6,102.1,22.1,103.5,22"/>
<path class="st1" d="M20.3,108.4c-0.3,0.2-0.5,0.5-0.7,0.7c-0.9,0.8-1.5,1.8-1.8,3c-0.4,1.6,0,3.2,1,4.5c0.5,0.7,1.1,1.2,1.9,1.5
	c0.1,0,0.2,0.1,0.3,0.1l-0.3,0.8c-0.6,1.6-1.5,3-2.6,4.2c-0.2,0.3-0.4,0.5-0.7,0.6c-0.8,0.7-1.8,0.9-2.8,0.6c-0.5-0.2-1-0.3-1.5-0.5
	c-0.5-0.2-1.1-0.3-1.6-0.3c-0.7,0-1.4,0.2-2,0.5c-0.5,0.2-1,0.4-1.5,0.5c-0.8,0.1-1.6-0.1-2.2-0.5c-0.6-0.5-1.2-1.1-1.7-1.7
	c-1.2-1.6-2.1-3.5-2.6-5.4c-0.5-1.7-0.6-3.5-0.4-5.3c0.2-1.5,0.9-3,1.9-4.2c1.1-1.2,2.7-1.7,4.2-1.5c0.8,0.1,1.6,0.3,2.4,0.5l1,0.3
	c0.5,0.1,1,0.1,1.4-0.1c0.6-0.2,1.3-0.5,1.9-0.6c1-0.3,2-0.3,3-0.2c1.2,0.2,2.4,0.9,3.2,1.9C20,108.1,20.1,108.3,20.3,108.4
	L20.3,108.4z"/>
<path class="st1" d="M15.4,100.5c0,0.3,0,0.5,0,0.8c-0.1,1.4-0.7,2.7-1.6,3.7c-0.4,0.5-0.9,0.9-1.5,1.1c-0.5,0.2-1.1,0.3-1.6,0.3
	l0,0C10.7,103.3,12.4,101.2,15.4,100.5z"/>
<path class="st1" d="M27.2,104.3c1.7-0.2,3.4-0.4,5.1-0.4c2.6,0,4.5,0.6,5.8,1.7c1.2,1.1,1.8,2.6,1.8,4.2c0.1,1.6-0.5,3.2-1.5,4.3
	c-1.7,1.6-3.9,2.4-6.2,2.3c-0.7,0-1.5,0-2.2-0.2v8.2h-2.6L27.2,104.3L27.2,104.3z M29.8,114.2c0.7,0.2,1.4,0.2,2.2,0.2
	c3.2,0,5.1-1.5,5.1-4.3s-1.9-4-4.9-4c-0.8,0-1.7,0-2.5,0.2L29.8,114.2L29.8,114.2z"/>
<path class="st1" d="M49.3,124.6l-0.2-1.9H49c-1.1,1.4-2.7,2.2-4.5,2.2c-2.3,0.2-4.3-1.6-4.5-3.9c0-0.1,0-0.2,0-0.4
	c0-3.5,3.2-5.5,8.9-5.5v-0.3c0-1.2-0.4-3.4-3.3-3.4c-1.3,0-2.6,0.4-3.8,1.1l-0.6-1.8c1.5-0.9,3.2-1.3,4.9-1.3c4.5,0,5.6,3.1,5.6,6.1
	v5.5c0,1.2,0.1,2.4,0.3,3.5L49.3,124.6L49.3,124.6z M48.9,117.1c-2.9-0.1-6.2,0.5-6.2,3.3c-0.1,1.3,0.9,2.4,2.2,2.5
	c0.1,0,0.2,0,0.3,0c1.6,0.1,3-0.9,3.5-2.4c0.1-0.3,0.2-0.5,0.2-0.8V117.1z"/>
<path class="st1" d="M55.1,109.8l3.3,8.7c0.4,1,0.7,2,0.9,3h0.1c0.3-0.9,0.5-2,0.9-3.1l2.9-8.7h2.8l-4,10.5
	c-1.9,5.1-3.3,7.6-5.1,9.2c-0.9,0.9-2,1.5-3.3,1.7l-0.6-2.3c0.9-0.3,1.6-0.7,2.3-1.3c1-0.8,1.7-1.8,2.3-3c0.1-0.2,0.2-0.4,0.2-0.6
	c0-0.2-0.1-0.5-0.2-0.7l-5.4-13.5L55.1,109.8L55.1,109.8z"/>
<g>
	<path class="st7" d="M89.2,122.5c-0.4,0.2-1.4,0.2-2.1,0.2c-2,0-3.5-0.7-4.3-1.8c-0.6-0.9-0.9-2-0.9-3.8v-4.3H79V110h2.9v-5.8h3.4
		v5.8h4.1v2.8h-4.1v4.8c0,0.8,0.1,1.2,0.4,1.6c0.3,0.4,0.9,0.6,1.7,0.6c0.5,0,1.1-0.1,1.4-0.1L89.2,122.5z"/>
	<path class="st7" d="M132.3,128.7l3.5-7.5l-5.6-11.2h3.7l3.7,7.5l3.4-7.5h3.5l-8.6,18.7L132.3,128.7L132.3,128.7z"/>
	<path class="st7" d="M99.4,110v1c-1-0.8-2.2-1.3-3.7-1.3c-3.4,0-6.1,2.8-6.1,6.5c0,1.7,0.6,3.3,1.6,4.4c1.1,1.3,2.9,2.1,4.7,2.1
		c1.3,0,2.5-0.4,3.5-1.3v1h3.2V110H99.4z M96,119.7c-1.9,0-3.5-1.6-3.5-3.5c0-1.9,1.6-3.5,3.5-3.5c1.9,0,3.5,1.6,3.5,3.5
		S98,119.7,96,119.7z"/>
	<path class="st7" d="M111,109.7c-1.4,0-2.7,0.5-3.7,1.3v-6.8h-3.2v18.3h3.2v-1c1,0.9,2.2,1.3,3.5,1.3c1.8,0,3.6-0.8,4.7-2.1
		c1-1.1,1.6-2.7,1.6-4.4C117.2,112.5,114.5,109.7,111,109.7z M110.7,119.7c-1.9,0-3.5-1.6-3.5-3.5c0-1.9,1.6-3.5,3.5-3.5
		c1.9,0,3.5,1.6,3.5,3.5S112.7,119.7,110.7,119.7z"/>
	<path class="st7" d="M124.9,109.7c-1.4,0-2.7,0.5-3.7,1.3v-6.8H118v18.3h3.2v-1c1,0.9,2.2,1.3,3.5,1.3c1.8,0,3.6-0.8,4.7-2.1
		c1-1.1,1.6-2.7,1.6-4.4C131.1,112.5,128.3,109.7,124.9,109.7z M124.6,119.7c-1.9,0-3.5-1.6-3.5-3.5c0-1.9,1.6-3.5,3.5-3.5
		c1.9,0,3.5,1.6,3.5,3.5C128.1,118.2,126.6,119.7,124.6,119.7z"/>
	<path class="st1" d="M150.6,107.5h3.4c-0.1-1.2-0.8-2.3-1.7-3L150.6,107.5z"/>
	<path class="st7" d="M148.2,111.6c0.5,0.2,1.1,0.4,1.7,0.4c0.6,0,1.2-0.1,1.7-0.4l-1.7-3L148.2,111.6z"/>
	<path class="st7" d="M150.6,108.3l1.7,3c1-0.7,1.6-1.7,1.7-3H150.6z"/>
	<path class="st7" d="M151.6,104.2c-0.5-0.2-1.1-0.4-1.7-0.4c-0.6,0-1.2,0.1-1.7,0.4l1.7,3L151.6,104.2z"/>
	<path class="st7" d="M149.2,108.3h-3.4c0.1,1.2,0.8,2.3,1.7,3L149.2,108.3z"/>
	<path class="st7" d="M149.2,107.5l-1.7-3c-1,0.7-1.6,1.7-1.7,3H149.2z"/>
</g>
</svg>
