<?xml version="1.0" encoding="UTF-8"?> <svg xmlns="http://www.w3.org/2000/svg" xmlns:xlink="http://www.w3.org/1999/xlink" version="1.1" id="Layer_1" x="0px" y="0px" viewBox="0 0 180 55" style="enable-background:new 0 0 180 55;" xml:space="preserve"> <style type="text/css"> .st0{fill:#E6E7E8;} .st1{fill:#808285;} .st2{fill:#A97C50;} .st3{fill:#D0984A;} .st4{fill:#6D6E71;} .st5{fill:none;stroke:#C79967;stroke-miterlimit:10;} </style> <g> <g> <path class="st0" d="M48.09,38.66c0.99-1.45,1.42-3.07,1.42-4.42c0-5.43-4.57-8.21-11.04-11.55l-0.22-0.11 c-4.01-2.06-10.08-5.17-10.08-10.83c0-2.34,0.73-4.25,2.17-5.7c-0.68,1.13-1.05,2.38-1.05,3.67c0,5.26,5.81,8.22,10.93,10.84 c10.08,5.04,10.9,8.13,10.9,11.37C51.14,33.79,50.38,36.61,48.09,38.66z"></path> <g> <g> <path class="st1" d="M36.33,23.87c-5.04-2.63-10.19-6.12-10.19-12.13C26.14,2.93,34.76,1,38.09,1c6.94,0,10.94,3.28,12.22,10.04 l0.05,0.28h-2.45l-0.05-0.18c-1.34-4.92-4.61-7.41-9.72-7.41c-3.21,0-6.8,2.55-6.8,5.97c0,4.01,4.99,6.56,9.82,9.03 c0.66,0.33,1.28,0.65,1.87,0.97l-0.23,0.42c-0.59-0.32-1.21-0.64-1.86-0.96c-4.73-2.42-10.09-5.15-10.09-9.45 c0-3.69,3.84-6.45,7.28-6.45c5.22,0,8.72,2.62,10.13,7.59h1.51c-1.31-6.39-5.03-9.36-11.7-9.36c-3.19,0-11.47,1.84-11.47,10.26 c0,5.75,5.02,9.14,9.94,11.7L36.33,23.87z"></path> </g> </g> <g> <path class="st2" d="M10.64,26.55v12.01l4.79-2.77V23.67h5.36c1.34,0,5.96,0.01,9.13,3.75l3.09-1.78 c-5.09-3.91-11.98-3.51-12.22-3.54H6.76v0.22C9.2,22.58,10.64,24.59,10.64,26.55z"></path> </g> <path class="st3" d="M37.26,31.36l-4.52,2.61c0.21,1.21,0.33,2.56,0.34,4.08c0.09,14.25-10.63,14.29-12.29,14.29h-5.36v-8.37 l-4.79,2.77V54h10.15c0.39,0,17.6,0.74,17.6-15.95C38.39,35.41,37.97,33.2,37.26,31.36z"></path> <g> <path class="st1" d="M33.06,39.1c0.01-0.19,0.01-0.38,0.01-0.57c-1.07-0.73-2.08-1.72-2.86-3.09l-0.42,0.24 C30.68,37.22,31.84,38.32,33.06,39.1z"></path> <path class="st1" d="M43.72,27.51l-0.28,0.39c2.82,1.99,4.03,3.88,4.03,6.33c0,5.13-5.58,6.25-7.73,6.25 c-0.34,0-0.86-0.02-1.48-0.1c-0.02,0.16-0.03,0.32-0.05,0.48c0.64,0.08,1.18,0.1,1.53,0.1c6.03,0,8.21-4.02,8.21-6.73 C47.95,31.61,46.69,29.6,43.72,27.51z"></path> </g> <g> <path class="st1" d="M32.83,41.72c0.02-0.16,0.04-0.34,0.06-0.51c-1.96-1.05-3.43-2.63-4.43-4.74l-0.43,0.21 C29.11,38.95,30.7,40.62,32.83,41.72z"></path> <path class="st1" d="M49.64,24.13l-0.32,0.35c2.37,2.18,3.38,4.41,3.38,7.44c0,4.37-3.29,10.87-12.35,10.87 c-0.87,0-1.69-0.05-2.47-0.14c-0.04,0.16-0.08,0.31-0.12,0.47c0.82,0.09,1.68,0.15,2.59,0.15c9.41,0,12.83-6.79,12.83-11.35 C53.18,28.74,52.12,26.41,49.64,24.13z"></path> </g> </g> <g> <path class="st4" d="M101.77,49.05c0,1.74-1.99,2.8-4.56,2.8c-1.55,0-3.78-0.74-3.78-3.01h0.85c0,1.78,1.74,2.29,2.97,2.33 c1.46,0,2.59-0.59,2.59-1.57c0-1.38-1.15-1.61-3.05-2.46c-1.21-0.53-3.35-1.44-3.35-3.44c0-1.55,1.44-2.86,4.18-2.86 c0.76,0,3.42,0.21,3.42,2.57h-0.74c0-1.61-1.89-1.97-2.65-1.97c-1.29,0-2.29,0.51-2.29,1.63c0,1.15,1.32,1.55,2.84,2.27 C100.39,46.38,101.77,47.1,101.77,49.05z"></path> <path class="st4" d="M109.4,50.34c-0.51,0.66-1.27,1.51-3.01,1.51c-1.95,0-2.04-1.02-2.04-2.02v-8.1h-1.74v-0.81h1.74v-2.67h2.12 v2.67h2.27v0.81h-2.27v7.68c0,0.62-0.15,1.49,0.59,1.68c0.45,0.13,1.36-0.06,1.89-1.02L109.4,50.34z"></path> <path class="st4" d="M119.95,46.38c0,3.8-2.27,5.47-5.05,5.47c-2.8,0-5.07-1.68-5.07-5.47c0-3.67,2.27-5.45,5.07-5.45 C117.68,40.92,119.95,42.66,119.95,46.38z M117.63,46.38c0-3.37-0.89-4.99-2.74-4.99c-1.85,0-2.76,1.63-2.76,4.99 c0,3.48,0.91,4.99,2.76,4.99C116.74,51.36,117.63,49.86,117.63,46.38z"></path> <path class="st4" d="M127.54,40.95v1.27c-1.55,0-3.22-0.23-3.78,2.97v6.36h-2.12V40.95h2.12v2.76 C124.38,41.43,125.67,40.95,127.54,40.95z"></path> <path class="st4" d="M130.08,45.89c0,0.15,0,0.32,0,0.49c0,3.9,3.54,6.87,6.85,3.01l0.36,0.34c-0.13,0.28-1.32,2.12-4.37,2.12 c-3.27,0-5.18-2.38-5.18-5.47c0-3.1,1.91-5.45,5.18-5.45c3.9,0,4.39,2.99,4.39,4.16v0.81H130.08z M130.15,45.08h4.62 c-0.04-2.31-0.42-3.42-1.82-3.42C131.61,41.67,130.42,42.41,130.15,45.08z"></path> </g> <g> <path class="st3" d="M94.53,22.92c0,1.33-0.24,7.4-8.4,7.4c0,0-8.43,0.41-8.43-7.4V8.3h3.24v14.62c0,6.48,5.48,6.1,5.48,6.1 c1.71,0,6.78-0.68,6.78-6.1V8.3h1.33V22.92z"></path> <path class="st3" d="M115.49,29.87h-4.24l-11.02-10.67v10.67h-3.24V8.3h3.24v10.43l10.7-10.43h1.92l-9.78,9.52L115.49,29.87z"></path> <path class="st3" d="M133.91,8.3v21.57h-3.24V19.5h-10.84v10.37h-3.24V8.3h3.24v10.08h10.84V8.3H133.91z"></path> <path class="st3" d="M135.49,29.87l9.67-21.57l9.9,21.57h-3.57l-1.86-4.07h-10.87l-1.83,4.07H135.49z M139.26,24.69h9.84 l-4.98-10.84L139.26,24.69z"></path> <path class="st3" d="M173.26,29.87l-15.71-15.41v15.41h-1.33V8.33l15.71,15.38V8.33h1.33V29.87z"></path> <g> <path class="st3" d="M56.87,11.36v8.27l3.3-1.91V9.38h3.69c0.92,0,4.1,0,6.29,2.58l2.13-1.23c-3.5-2.69-8.25-2.42-8.42-2.44H54.2 v0.15C55.88,8.63,56.87,10.01,56.87,11.36z"></path> <path class="st3" d="M72.09,16.48c0.14,0.84,0.23,1.76,0.23,2.81c0.06,9.81-7.32,9.84-8.46,9.84h-3.69v-5.77l-3.3,1.91v5h6.99 c0.27,0,12.12,0.51,12.12-10.98c0-1.82-0.29-3.34-0.78-4.61L72.09,16.48z"></path> </g> </g> <line class="st5" x1="56.61" y1="34.59" x2="173.23" y2="34.59"></line> </g> </svg> 