<?xml version="1.0" standalone="no"?>
<!DOCTYPE svg PUBLIC "-//W3C//DTD SVG 20010904//EN"
 "http://www.w3.org/TR/2001/REC-SVG-20010904/DTD/svg10.dtd">
<svg version="1.0" xmlns="http://www.w3.org/2000/svg"
 width="882.000000pt" height="866.000000pt" viewBox="0 0 882.000000 866.000000"
 preserveAspectRatio="xMidYMid meet">

<g transform="translate(0.000000,866.000000) scale(0.100000,-0.100000)"
fill="#000000" stroke="none">
<path d="M5280 8580 c-126 -45 -234 -90 -247 -102 -13 -12 -27 -37 -33 -56
-11 -40 -3 -64 130 -442 62 -174 79 -235 69 -239 -7 -2 -23 -14 -36 -27 -32
-32 -30 -78 9 -188 l32 -91 -27 -40 c-29 -44 -57 -116 -57 -147 0 -13 538
-1567 585 -1688 4 -12 -27 -26 -147 -67 -141 -48 -161 -52 -263 -56 -87 -2
-120 -8 -159 -25 -27 -12 -51 -20 -54 -18 -8 9 66 102 103 130 42 33 114 65
214 97 40 13 75 29 78 35 2 6 -17 73 -43 147 l-47 137 -33 -69 c-45 -92 -139
-180 -249 -232 -144 -70 -261 -61 -363 27 -67 57 -70 68 -27 116 51 56 75 112
75 178 l0 55 -47 -70 c-91 -137 -168 -194 -292 -221 -119 -25 -116 -26 -128
65 -27 207 -165 352 -392 413 -100 27 -318 29 -436 4 -278 -60 -489 -180 -700
-398 -84 -86 -221 -270 -241 -323 -3 -7 -34 -20 -69 -30 -121 -32 -230 -114
-306 -230 -21 -33 -39 -57 -39 -54 0 3 50 122 111 265 98 229 112 267 116 330
9 119 -37 219 -131 283 -67 47 -139 61 -303 61 -123 0 -143 2 -143 16 0 27 50
167 76 211 l25 43 49 -25 c63 -32 151 -55 209 -55 l45 0 -109 54 c-242 119
-390 279 -442 476 -22 86 -22 252 1 340 71 269 214 453 431 556 277 131 554
82 791 -140 38 -35 85 -85 104 -110 19 -25 39 -45 44 -46 16 0 -6 96 -37 160
-21 43 -57 91 -108 143 l-76 77 40 36 c88 80 242 127 412 127 184 -1 336 -55
494 -173 170 -129 256 -298 268 -531 3 -59 3 -118 -1 -132 l-6 -25 -47 15
c-72 23 -248 23 -290 0 -47 -25 -41 -37 20 -37 73 0 182 -25 244 -55 90 -44
172 -157 205 -281 7 -24 15 -44 19 -44 13 0 22 87 14 135 -9 60 -30 110 -72
168 -31 45 -33 50 -19 66 37 41 180 91 261 91 52 0 144 -24 198 -51 61 -31
160 -136 192 -204 39 -84 51 -167 33 -235 -9 -30 -18 -62 -22 -71 -7 -15 -2
-15 46 -2 34 9 87 13 148 11 78 -3 106 -9 155 -31 33 -16 68 -35 78 -44 12
-12 0 34 -44 158 -176 498 -169 476 -169 548 0 38 7 88 15 112 11 29 12 45 5
49 -39 24 -423 86 -595 96 -60 4 -118 10 -128 13 -11 4 -31 40 -51 88 -124
308 -403 530 -757 604 -134 27 -320 23 -449 -10 -104 -27 -250 -96 -308 -146
l-43 -37 -80 16 c-154 31 -344 18 -494 -34 -426 -148 -717 -592 -692 -1059 7
-134 35 -242 92 -355 l45 -89 -133 -136 c-72 -75 -152 -162 -177 -193 l-45
-57 -290 -1 c-298 0 -349 -6 -423 -44 -52 -27 -111 -93 -141 -155 -22 -47 -26
-69 -25 -141 l0 -85 136 -328 137 -327 -35 -103 c-33 -98 -114 -405 -114 -432
0 -9 10 -8 38 6 20 11 54 22 75 26 46 7 46 8 83 166 15 65 30 120 34 122 3 2
25 -42 48 -98 36 -87 41 -109 36 -148 -6 -44 -5 -46 24 -58 27 -12 39 -36 141
-282 61 -148 111 -278 111 -288 0 -11 4 -21 9 -23 5 -1 57 -119 115 -260 l106
-257 0 -273 0 -273 39 -29 c44 -32 51 -55 51 -182 0 -44 3 -135 6 -201 6 -107
9 -120 27 -129 12 -5 22 -15 25 -21 3 -10 -19 -13 -87 -13 l-91 0 0 188 0 189
-155 122 -155 122 0 55 0 54 80 0 80 0 0 321 c0 266 -3 326 -15 353 -23 48
-61 66 -144 66 l-71 0 0 211 c0 232 -6 267 -53 325 -79 95 -223 98 -309 7 -53
-56 -58 -83 -58 -323 l0 -220 -70 0 c-44 0 -82 -6 -100 -15 -58 -30 -60 -42
-60 -400 l0 -325 75 0 75 0 0 -57 0 -58 -155 -123 -155 -122 2 -971 3 -971 24
-19 c22 -18 53 -19 973 -19 l949 0 72 -48 c291 -196 654 -363 1016 -468 834
-242 1736 -186 2536 159 185 79 418 205 572 308 l72 49 1068 2 1068 3 58 23
c71 29 172 120 210 190 73 134 76 304 6 449 -35 73 -142 175 -214 204 l-60 24
-695 5 c-382 3 -684 9 -670 13 91 28 208 37 522 37 l327 0 15 54 c9 30 16 59
16 64 0 6 4 13 9 16 5 3 22 -26 37 -64 l29 -70 438 0 438 0 -6 23 c-34 110
-338 1055 -388 1202 -76 225 -167 346 -294 395 l-48 18 -267 763 c-147 420
-285 814 -307 876 l-39 112 36 12 c21 6 47 21 59 32 43 39 39 66 -47 312 -45
127 -87 239 -95 251 -7 11 -28 27 -45 34 -27 11 -39 11 -79 -2 l-47 -15 -38
111 c-48 139 -74 178 -139 211 -61 30 -105 31 -181 5 l-57 -19 -9 25 c-6 14
-136 385 -290 824 -154 440 -286 813 -295 830 -19 36 -71 72 -141 96 l-50 17
-34 99 c-41 117 -63 143 -125 143 l-43 0 -92 265 c-131 373 -128 367 -158 389
-57 40 -81 36 -322 -49z m239 7 c6 -8 57 -146 114 -308 108 -306 113 -329 63
-329 -13 0 -27 8 -31 18 -27 69 -205 587 -205 598 0 12 26 33 41 34 4 0 12 -6
18 -13z m-120 -41 c19 -22 221 -605 215 -619 -5 -14 -59 -37 -87 -37 -9 0 -19
5 -23 11 -19 31 -212 602 -208 614 3 7 22 20 42 29 46 19 47 19 61 2z m518
-658 c6 -7 31 -72 56 -145 42 -119 45 -134 31 -148 -34 -33 -45 -18 -99 139
-47 133 -48 139 -30 152 23 17 30 17 42 2z m-63 -184 c52 -150 52 -151 -13
-173 -23 -7 -38 -8 -46 -1 -7 6 -34 71 -60 146 -37 104 -45 138 -36 147 19 19
75 35 92 26 9 -5 37 -68 63 -145z m-482 -149 c26 -72 47 -138 48 -147 0 -22
-53 -50 -87 -46 -23 3 -30 16 -73 139 -29 85 -44 142 -39 150 9 16 67 39 89
36 10 -2 32 -49 62 -132z m886 -129 c23 -65 40 -126 37 -136 -6 -19 -38 -32
-60 -24 -17 7 -97 237 -89 257 6 16 28 26 54 23 10 -1 30 -44 58 -120z m-171
62 c6 -7 27 -64 48 -126 33 -97 36 -115 24 -126 -19 -18 -116 -49 -133 -43 -7
3 -32 60 -55 127 -48 137 -48 135 27 162 58 20 77 22 89 6z m-734 -275 c24
-47 79 -222 73 -231 -9 -15 -124 -55 -139 -49 -8 3 -33 60 -57 127 -47 135
-47 133 23 162 61 25 84 23 100 -9z m980 -45 c18 -14 237 -633 237 -671 0 -34
-24 -52 -118 -86 l-83 -31 -8 23 c-5 13 -32 90 -61 172 -29 83 -60 158 -68
168 -13 15 -25 17 -57 12 l-41 -6 -53 156 c-65 188 -65 187 61 232 46 17 90
33 98 36 27 10 76 7 93 -5z m-356 -110 c18 -24 112 -308 107 -322 -3 -8 -26
-22 -52 -30 -37 -13 -49 -14 -59 -4 -17 17 -115 297 -111 317 3 17 62 50 89
51 9 0 21 -6 26 -12z m-338 -132 c11 -13 111 -289 111 -306 0 -4 -16 -17 -35
-29 -21 -12 -35 -28 -35 -40 0 -11 27 -97 60 -192 33 -95 59 -174 57 -176 -2
-2 -42 -16 -89 -32 -76 -26 -88 -27 -116 -15 -18 7 -32 15 -32 17 0 2 -49 145
-110 317 -60 172 -110 323 -110 336 0 38 32 62 130 98 103 37 151 44 169 22z
m575 -231 c24 -25 52 -123 40 -142 -12 -19 -140 -65 -168 -61 -23 4 -69 127
-56 149 7 10 130 62 162 68 4 0 13 -6 22 -14z m-408 -181 c9 -20 35 -92 58
-160 39 -111 42 -125 29 -144 -16 -23 -46 -26 -60 -7 -9 10 -113 300 -113 312
0 2 7 11 16 19 27 27 54 20 70 -20z m478 -19 c24 -25 52 -123 40 -142 -12 -19
-140 -65 -168 -61 -23 4 -69 127 -56 149 7 10 130 62 162 68 4 0 13 -6 22 -14z
m-4688 -99 c3 -8 -10 -64 -30 -124 -32 -104 -39 -116 -106 -194 -40 -46 -86
-102 -103 -125 -17 -24 -34 -43 -37 -43 -4 0 -20 34 -35 75 l-27 75 58 72 c72
88 253 278 266 278 5 0 11 -6 14 -14z m5096 -223 c70 -202 73 -227 20 -221
-25 3 -30 15 -95 198 l-68 195 21 17 c39 32 53 10 122 -189z m-130 -41 c37
-105 65 -199 62 -207 -6 -16 -95 -48 -120 -43 -11 2 -36 59 -80 187 -35 101
-64 192 -64 203 0 22 71 58 110 55 23 -2 30 -16 92 -195z m-785 -282 c35 -101
61 -190 58 -197 -7 -21 -77 -47 -94 -36 -15 10 -140 355 -141 389 0 30 66 58
94 40 12 -8 41 -77 83 -196z m-1942 109 c88 -15 163 -56 199 -107 25 -35 30
-53 31 -100 0 -76 -26 -127 -84 -163 -60 -38 -120 -38 -295 1 -273 61 -456 48
-724 -53 -75 -28 -89 -31 -82 -16 19 35 174 190 239 239 212 160 493 238 716
199z m-2576 -636 c108 -287 199 -524 202 -528 3 -3 77 173 164 392 87 219 181
457 209 528 l52 130 85 3 c104 4 123 -1 138 -34 11 -24 -12 -81 -270 -688
-155 -363 -338 -794 -406 -956 -69 -162 -126 -296 -127 -297 -1 -1 -41 96 -90
215 -49 119 -224 542 -388 940 -164 397 -298 735 -298 751 0 20 9 36 27 50 25
21 36 21 266 19 l240 -3 196 -522z m5613 360 c8 -10 205 -562 438 -1228 232
-665 425 -1216 427 -1222 4 -10 -13 -13 -63 -13 l-69 0 -422 1208 c-233 664
-423 1213 -423 1220 0 43 83 68 112 35z m-2459 -15 c35 -8 66 -8 115 1 103 19
104 19 124 -16 44 -73 25 -233 -35 -307 l-24 -30 -62 27 c-77 33 -196 65 -273
74 -32 3 -58 8 -58 10 0 3 14 22 30 43 37 46 76 131 86 183 6 34 9 38 28 32
11 -4 43 -11 69 -17z m2266 -52 c9 -10 841 -2377 841 -2391 0 -3 -58 -5 -130
-5 -71 0 -130 2 -130 4 0 2 -180 518 -400 1146 -220 628 -400 1151 -400 1161
0 36 13 49 78 73 103 37 119 39 141 12z m-3431 -543 c-3 -272 -3 -278 -24
-281 -18 -3 -25 12 -59 120 -48 152 -90 258 -127 321 l-28 48 28 11 c57 23
168 56 190 57 l22 1 -2 -277z m-541 136 c42 -16 92 -68 122 -129 16 -30 67
-172 114 -315 116 -349 297 -915 297 -926 0 -5 -94 -8 -216 -7 l-216 3 -53
125 -53 125 -200 3 -199 2 -32 -117 c-18 -65 -34 -124 -36 -130 -3 -10 -37
-13 -124 -13 -92 0 -119 3 -116 13 2 6 65 208 139 447 215 693 234 751 264
799 29 48 103 105 156 120 44 13 119 13 153 0z m3301 -141 l3 -118 -251 0
-250 0 2 -162 3 -163 248 -3 247 -2 0 -53 c0 -28 -3 -76 -6 -104 l-7 -53 -236
-2 -236 -3 0 -180 0 -180 238 -3 237 -2 0 -105 0 -105 -322 0 c-178 0 -352 5
-388 11 -80 13 -141 47 -172 96 l-23 38 -3 460 c-3 475 1 549 37 630 22 50 76
103 116 114 16 5 194 9 395 8 l365 -2 3 -117z m-1746 88 c224 -43 381 -153
467 -327 63 -129 76 -190 76 -359 0 -111 -5 -159 -19 -204 -57 -189 -187 -323
-373 -385 -55 -19 -86 -21 -273 -21 l-210 0 0 -305 0 -305 -210 0 -210 0 0
398 c0 218 -3 650 -7 960 l-6 562 345 0 c256 0 365 -4 420 -14z m-2131 -23
c-12 -20 -14 -14 -5 12 4 9 9 14 11 11 3 -2 0 -13 -6 -23z m-1636 -1158 c0
-184 -1 -200 -18 -203 -43 -8 -47 10 -47 202 0 191 4 210 45 204 19 -3 20 -10
20 -203z m110 0 l0 -200 -30 -3 c-50 -6 -55 13 -55 201 0 190 5 210 53 205
l32 -3 0 -200z m4269 -166 c25 -51 103 -130 162 -165 25 -15 77 -36 115 -48
l70 -22 65 -153 c35 -85 64 -155 64 -156 0 -1 -87 -1 -192 -1 -171 1 -200 -2
-255 -21 -62 -21 -64 -21 -122 -2 -109 33 -219 43 -318 29 -48 -8 -130 -15
-180 -17 l-93 -4 0 169 0 169 98 5 c168 9 337 78 485 198 40 33 74 59 77 59 3
1 14 -17 24 -40z m-4550 -185 c3 -9 6 -114 6 -234 0 -185 -2 -221 -16 -234
-18 -19 -28 -20 -55 -6 -18 10 -19 24 -19 244 0 128 3 236 7 239 13 14 71 7
77 -9z m154 4 c9 -9 12 -75 12 -234 0 -189 -2 -225 -16 -238 -18 -18 -56 -21
-85 -6 -18 10 -19 24 -19 244 0 128 3 236 7 239 11 12 88 8 101 -5z m5359
-217 c29 -85 52 -155 50 -157 -2 -2 -51 -1 -108 2 l-104 7 -60 144 c-33 80
-62 149 -63 154 -2 6 44 8 113 7 l118 -3 54 -154z m-5036 -391 c16 -9 19 -22
19 -85 l0 -75 140 -112 c145 -116 162 -138 142 -184 l-11 -24 -368 -2 -368 -3
-2 -875 c-3 -972 2 -900 -69 -900 -68 0 -64 -61 -64 901 0 767 -2 870 -15 875
-8 4 -22 1 -30 -6 -13 -11 -15 -124 -15 -881 0 -811 -1 -869 -17 -878 -11 -6
-24 -6 -35 0 -17 9 -18 59 -18 934 l0 925 140 112 140 112 0 66 c0 112 -3 110
221 110 112 0 198 -4 210 -10z m3868 -15 c150 -36 292 -146 364 -283 212 -404
-51 -892 -481 -892 -148 0 -274 53 -382 160 -144 143 -210 366 -166 564 72
320 368 521 665 451z m3388 -15 c18 -10 46 -43 63 -72 26 -45 136 -368 292
-858 21 -69 43 -137 48 -152 l9 -28 -177 0 -177 0 -44 105 -44 105 -163 0
-163 0 -10 -34 c-5 -19 -17 -67 -27 -105 l-18 -71 -99 0 c-89 0 -98 2 -93 18
327 1058 312 1016 378 1065 67 50 168 62 225 27z m-5417 3 c1 -5 -14 -56 -32
-115 l-33 -108 -215 0 c-234 0 -325 -10 -381 -42 -75 -42 -103 -150 -49 -189
19 -14 56 -21 151 -28 199 -16 302 -57 343 -136 17 -32 21 -58 21 -130 0 -81
-3 -96 -32 -151 -67 -129 -190 -232 -337 -281 l-81 -28 -447 -3 c-326 -2 -448
0 -448 8 0 6 14 60 31 119 l31 108 407 7 c358 7 411 10 446 26 62 27 97 71
102 127 4 42 2 51 -20 72 -22 20 -40 24 -149 32 -204 16 -291 48 -345 127 -24
36 -39 123 -30 179 12 73 65 163 140 238 92 92 191 142 325 165 60 10 602 12
602 3z m490 -203 l0 -210 215 0 215 0 0 210 0 210 147 0 146 0 -6 -407 c-4
-223 -7 -478 -7 -565 l0 -158 -140 0 -140 0 0 200 0 200 -215 0 -215 0 0 -355
0 -355 -180 0 -180 0 0 720 0 720 180 0 180 0 0 -210z m2795 186 c266 -77 415
-283 415 -576 0 -223 -89 -388 -255 -477 -97 -51 -162 -63 -344 -63 l-161 0 0
-175 0 -175 -185 0 -185 0 0 746 0 745 328 -3 c272 -4 337 -7 387 -22z m1755
-23 c2 -2 -11 -49 -29 -103 l-32 -100 -223 0 c-249 0 -302 -9 -350 -59 -21
-22 -30 -43 -34 -80 -6 -68 12 -79 160 -91 261 -21 350 -92 335 -264 -15 -165
-180 -333 -374 -380 -42 -10 -166 -16 -455 -20 -432 -6 -408 -9 -389 50 6 16
19 62 31 102 l21 72 358 0 c384 0 417 4 468 52 29 27 48 87 39 123 -8 33 -58
55 -125 55 -81 0 -203 20 -254 42 -80 35 -117 97 -117 200 0 138 137 308 298
368 103 40 180 47 432 42 129 -2 237 -6 240 -9z m-1195 -1373 c4 -6 -30 -10
-94 -10 -61 0 -101 4 -101 10 0 6 38 10 94 10 53 0 98 -4 101 -10z m-2454
-216 c11 -13 7 -26 -21 -82 -18 -37 -44 -91 -57 -121 l-24 -54 27 18 c72 47
95 57 119 51 39 -10 31 -41 -20 -76 -28 -19 -43 -36 -38 -43 4 -7 20 -30 35
-51 26 -37 27 -40 12 -58 -28 -30 -51 -21 -106 47 l-53 64 -27 -54 c-16 -30
-37 -59 -49 -65 -25 -14 -69 -5 -69 14 0 19 178 387 197 408 20 22 56 23 74 2z
m-2351 -109 c9 -11 9 -20 -3 -44 -14 -28 -14 -29 14 -35 56 -11 27 -66 -35
-66 -21 0 -31 -10 -51 -50 -14 -27 -25 -52 -25 -55 0 -3 13 -5 29 -5 42 0 61
-9 61 -31 0 -27 -31 -39 -100 -39 -66 0 -100 12 -100 36 0 8 13 44 29 79 19
41 25 65 18 65 -25 0 -39 18 -32 39 4 15 18 23 45 27 25 4 41 13 45 24 18 58
77 89 105 55z m2631 5 c40 -22 12 -70 -40 -70 -20 0 -51 24 -51 40 0 16 31 40
51 40 11 0 29 -5 40 -10z m2069 -5 c9 -11 9 -20 -3 -44 -14 -28 -14 -29 14
-35 56 -11 27 -66 -35 -66 -21 0 -31 -10 -51 -50 -14 -27 -25 -52 -25 -55 0
-3 13 -5 29 -5 42 0 61 -9 61 -31 0 -27 -31 -39 -100 -39 -66 0 -100 12 -100
36 0 8 13 44 29 79 19 41 25 65 18 65 -25 0 -39 18 -32 39 4 15 18 23 45 27
25 4 41 13 45 24 18 58 77 89 105 55z m1411 5 c40 -22 12 -70 -40 -70 -20 0
-51 24 -51 40 0 16 31 40 51 40 11 0 29 -5 40 -10z m-2251 -30 c0 -12 -10 -25
-25 -32 -33 -15 -75 3 -75 32 0 17 6 20 50 20 44 0 50 -3 50 -20z m-4181 -14
c6 -7 9 -21 5 -30 -4 -9 10 -40 36 -78 33 -50 40 -69 36 -92 -12 -60 -62 -86
-168 -86 -69 0 -88 7 -88 31 0 25 30 39 84 39 24 0 51 3 60 6 20 8 21 44 2 69
-13 18 -14 18 -20 -3 -10 -29 -53 -40 -74 -18 -16 15 -15 20 12 72 52 99 86
126 115 90z m1400 0 c6 -7 9 -21 5 -30 -4 -9 10 -40 36 -78 33 -50 40 -69 36
-92 -12 -60 -62 -86 -168 -86 -69 0 -88 7 -88 31 0 25 30 39 84 39 24 0 51 3
60 6 20 8 21 44 2 69 -13 18 -14 18 -20 -3 -10 -29 -53 -40 -74 -18 -16 15
-15 20 12 72 52 99 86 126 115 90z m3300 0 c6 -7 9 -21 5 -30 -4 -9 10 -40 36
-78 33 -50 40 -69 36 -92 -13 -61 -62 -86 -173 -86 -40 0 -67 5 -75 14 -11 11
-16 11 -35 -1 -16 -11 -39 -13 -85 -9 -76 6 -69 6 -143 0 -120 -9 -139 29 -76
154 41 82 62 99 101 87 27 -9 25 -25 -10 -96 -33 -64 -32 -79 4 -79 29 0 48
21 88 101 38 73 75 97 105 66 16 -16 15 -21 -20 -92 l-37 -75 38 0 c21 0 43
-5 49 -11 8 -8 17 -8 31 0 11 6 41 11 66 11 24 0 51 3 60 6 20 8 21 44 2 69
-13 18 -14 18 -20 -3 -10 -29 -53 -40 -74 -18 -16 15 -15 20 12 72 52 99 86
126 115 90z m-4085 -61 c32 -21 50 -66 41 -105 -9 -40 -51 -89 -92 -106 -67
-29 -179 -10 -202 34 -24 45 -7 115 37 155 51 47 161 58 216 22z m221 16 c3
-6 17 -6 35 1 41 14 96 2 115 -25 19 -27 20 -99 1 -135 -35 -67 -121 -100
-195 -74 l-31 11 -57 -112 c-46 -89 -64 -114 -86 -121 -21 -8 -31 -6 -44 7
-17 16 -12 28 81 215 54 108 104 207 112 220 15 22 58 31 69 13z m822 -2 c9
-9 20 -9 44 0 42 15 68 14 101 -3 22 -12 33 -12 72 1 59 20 111 11 133 -23 16
-24 15 -28 -10 -80 -15 -30 -27 -57 -27 -59 0 -3 13 -5 29 -5 42 0 61 -9 61
-31 0 -27 -31 -39 -100 -39 -66 0 -100 12 -100 35 0 8 12 39 27 70 32 64 24
86 -24 69 -20 -7 -38 -28 -65 -79 -41 -79 -66 -100 -103 -91 -32 8 -32 24 6
98 34 68 29 89 -18 72 -20 -7 -38 -28 -65 -79 -20 -38 -46 -76 -57 -84 -25
-16 -71 -7 -71 14 0 16 84 190 102 213 13 15 50 16 65 1z m687 -14 c32 -21 50
-66 41 -105 -9 -40 -51 -89 -92 -106 -67 -29 -179 -10 -202 34 -24 45 -7 115
37 155 51 47 161 58 216 22z m570 19 c22 -9 20 -25 -14 -101 -16 -36 -30 -67
-30 -69 0 -2 15 -4 33 -4 18 0 38 -5 45 -12 15 -15 12 -19 66 89 48 98 72 117
114 94 14 -8 29 -8 51 0 45 16 98 3 118 -27 16 -24 15 -28 -10 -80 -15 -30
-27 -57 -27 -59 0 -3 13 -5 29 -5 42 0 61 -9 61 -31 0 -27 -31 -39 -100 -39
-66 0 -100 12 -100 35 0 8 12 39 27 70 32 64 24 86 -24 69 -20 -7 -38 -28 -64
-78 -49 -94 -86 -118 -122 -81 -11 11 -17 11 -19 3 -6 -16 -125 -23 -160 -9
-38 15 -36 36 17 140 49 99 65 112 109 95z m696 -4 c8 0 31 1 50 3 52 3 50
-24 -9 -142 -28 -55 -51 -103 -51 -106 0 -3 13 -5 29 -5 42 0 61 -9 61 -31 0
-25 -30 -39 -85 -39 -40 0 -47 -3 -56 -27 -50 -133 -220 -177 -297 -78 -31 39
-28 78 8 118 35 40 88 57 179 57 33 0 62 4 65 9 4 5 -11 7 -34 4 -34 -5 -43
-2 -70 25 -32 32 -37 62 -19 109 25 67 106 117 174 108 22 -3 47 -5 55 -5z
m1737 -1 c7 -7 10 -31 6 -63 l-5 -51 62 63 c50 51 67 63 88 60 21 -2 28 -9 29
-28 2 -19 -18 -46 -85 -117 -98 -103 -130 -119 -171 -86 -23 19 -24 20 -13
114 9 68 16 97 29 107 21 15 45 16 60 1z m387 2 c16 -7 35 -6 55 2 26 10 34 9
48 -6 16 -16 16 -21 -15 -82 -18 -36 -32 -70 -32 -75 0 -6 16 -10 36 -10 28 0
37 -5 41 -21 5 -17 18 2 62 87 45 87 61 110 80 112 13 2 28 -1 33 -6 7 -7 20
-7 39 0 40 14 95 2 114 -25 19 -27 20 -99 1 -135 -35 -67 -121 -100 -195 -74
l-31 11 -57 -112 c-46 -89 -64 -114 -86 -121 -21 -8 -31 -6 -44 7 -16 16 -14
23 35 123 40 80 48 102 33 94 -26 -13 -114 -13 -128 1 -8 8 -17 8 -31 0 -48
-26 -151 -4 -166 34 -42 111 94 239 208 196z m660 3 c22 -9 20 -25 -14 -101
-16 -36 -30 -67 -30 -69 0 -2 15 -4 33 -4 18 0 38 -5 45 -12 15 -15 12 -19 66
89 48 98 72 117 114 94 14 -8 29 -8 51 0 45 16 98 3 118 -27 16 -24 15 -28
-10 -80 -15 -30 -27 -57 -27 -59 0 -3 13 -5 29 -5 42 0 61 -9 61 -31 0 -27
-31 -39 -100 -39 -66 0 -100 12 -100 35 0 8 12 39 27 70 32 64 24 86 -24 69
-20 -7 -38 -28 -64 -78 -49 -94 -86 -118 -122 -81 -11 11 -17 11 -19 3 -6 -16
-125 -23 -160 -9 -38 15 -36 36 17 140 49 99 65 112 109 95z m696 -4 c8 0 31
1 50 3 52 3 50 -24 -9 -142 -28 -55 -51 -103 -51 -106 0 -3 13 -5 29 -5 42 0
61 -9 61 -31 0 -25 -30 -39 -85 -39 -40 0 -47 -3 -56 -27 -50 -133 -220 -177
-297 -78 -31 39 -28 78 8 118 35 40 88 57 179 57 33 0 62 4 65 9 4 5 -11 7
-34 4 -34 -5 -43 -2 -70 25 -32 32 -37 62 -19 109 25 67 106 117 174 108 22
-3 47 -5 55 -5z m-2959 -16 c10 -13 4 -32 -45 -125 l-57 -109 30 0 c42 0 61
-9 61 -31 0 -25 -30 -39 -82 -39 -41 0 -44 -2 -67 -45 -34 -63 -81 -102 -134
-110 -98 -15 -185 42 -173 114 12 75 78 109 211 111 l60 0 42 90 42 90 -29 0
c-41 0 -60 10 -60 31 0 28 29 38 111 39 57 0 80 -4 90 -16z m-2631 -531 c220
-87 509 -161 785 -200 103 -14 193 -18 440 -18 247 0 337 4 440 18 275 39 529
103 782 198 l131 49 164 -1 163 -1 -110 -54 c-978 -479 -2161 -478 -3140 1
l-110 54 175 -2 175 -2 105 -42z"/>
<path d="M2505 4805 c-4 -11 -39 -130 -79 -265 l-72 -245 78 -3 c43 -2 113 -2
157 0 l78 3 -68 235 c-95 326 -86 299 -94 275z"/>
<path d="M3916 4519 c-5 -332 -4 -495 3 -502 15 -15 135 8 197 38 146 71 233
243 234 461 0 105 -14 174 -50 251 -37 81 -73 126 -135 168 -59 41 -113 61
-187 70 l-55 7 -7 -493z"/>
<path d="M4499 2827 c-129 -87 -171 -508 -72 -728 32 -73 82 -122 123 -122 59
0 120 84 156 214 28 97 25 346 -4 453 -27 96 -63 161 -105 187 -41 25 -57 24
-98 -4z"/>
<path d="M7865 2669 c-2 -8 -31 -104 -64 -214 l-59 -200 126 -3 c68 -1 126 -1
128 1 4 4 -115 419 -122 426 -2 2 -6 -2 -9 -10z"/>
<path d="M5570 2430 l0 -433 55 6 c147 15 261 120 301 276 23 93 16 275 -15
353 -46 118 -163 210 -283 224 l-58 7 0 -433z"/>
<path d="M1825 1085 c-41 -40 -28 -85 25 -85 41 0 70 26 70 64 0 52 -53 64
-95 21z"/>
<path d="M2198 1103 c-31 -35 -48 -79 -35 -92 30 -30 85 -5 105 50 20 50 -35
82 -70 42z"/>
<path d="M3555 1085 c-41 -40 -28 -85 25 -85 41 0 70 26 70 64 0 52 -53 64
-95 21z"/>
<path d="M4856 1093 c-20 -20 -26 -35 -24 -57 3 -27 7 -31 33 -31 25 0 34 7
53 43 13 23 21 49 18 57 -9 24 -51 17 -80 -12z"/>
<path d="M4702 834 c-26 -18 -28 -37 -6 -58 26 -26 59 -19 93 19 17 20 31 40
31 45 0 16 -94 11 -118 -6z"/>
<path d="M6999 1090 c-22 -22 -29 -37 -27 -57 3 -25 7 -28 38 -28 32 0 37 4
59 48 20 41 22 50 10 58 -25 16 -50 9 -80 -21z"/>
<path d="M7408 1103 c-31 -35 -48 -79 -35 -92 30 -30 85 -5 105 50 20 50 -35
82 -70 42z"/>
<path d="M8336 1093 c-20 -20 -26 -35 -24 -57 3 -27 7 -31 33 -31 25 0 34 7
53 43 13 23 21 49 18 57 -9 24 -51 17 -80 -12z"/>
<path d="M8182 834 c-26 -18 -28 -37 -6 -58 26 -26 59 -19 93 19 17 20 31 40
31 45 0 16 -94 11 -118 -6z"/>
<path d="M5142 843 c-22 -9 -34 -41 -22 -63 16 -30 61 -26 91 8 57 62 57 62
-2 61 -30 0 -60 -3 -67 -6z"/>
<path d="M2677 6998 c-22 -183 17 -323 117 -424 130 -129 375 -164 538 -77 78
42 70 50 -50 51 -124 1 -196 17 -298 67 -129 63 -243 214 -275 364 -17 77 -25
82 -32 19z"/>
</g>
</svg>
