<svg xmlns="http://www.w3.org/2000/svg" xmlns:xlink="http://www.w3.org/1999/xlink" version="1.1" id="svg-7742" x="0px" y="0px" width="512px" height="512px" viewBox="0 0 512 512" style="" xml:space="preserve"><style type="text/css">.st0{fill:none;stroke:#000000;stroke-width:80;stroke-miterlimit:10;}</style><g transform="translate(0.000000,512.000000) scale(0.100000,-0.100000)"> <path class="st0 EkZByLmu_0" d="M1949,5105c-36-20-46-53-54-175c-16-257-92-473-243-684c-54-76-214-245-349-369l-63-57V2319 c0-1010,3-1507,10-1520c26-47,45-49,440-49h370v-89c0-83-1-90-25-105c-26-17-44-67-37-104c2-12,17-35,33-50c28-26,29-30,29-120 c0-51,5-103,12-115c16-32,116-140,141-154c31-17,663-17,694,0c25,14,125,122,141,154c7,12,12,64,12,117c0,85,2,95,20,101 c30,10,60,54,60,91c0,35-41,94-66,94c-11,0-14,19-14,90v90h370c395,0,414,2,440,49c7,13,10,510,10,1521v1501l-62,57 c-156,143-235,224-304,309c-77,95-103,111-158,97c-38-9-66-50-66-94c0-45,50-118,161-235l72-75h-963h-963l69,73 c174,182,292,378,363,601c30,94,61,246,61,303c0,68-42,63,531,63c380,0,525,3,544,12c29,13,55,55,55,88s-26,75-55,88 C3124,5127,1984,5124,1949,5105z M3680,3165v-515H2560H1440v515v515h1120h1120V3165z M2060,2050v-400h-310h-310v400v400h310h310 V2050z M2860,2050v-400l-297,2l-298,3l-3,398l-2,397h300h300V2050z M3680,2050v-400l-307,2l-308,3l-3,398l-2,397h310h310V2050z M3680,1200V950H2560H1440v250v250h1120h1120V1200z M2860,665v-85h-300h-300v85v85h300h300V665z M2860,313c0-55-4-71-22-90 c-21-23-23-23-277-23c-248,0-255,1-278,22c-20,18-23,31-23,90v68h300h300V313z"></path> <path class="st0 EkZByLmu_1" d="M2162,1275c-56-47-44-133,23-161c100-42,183,80,106,157C2253,1309,2204,1310,2162,1275z"></path> <path class="st0 EkZByLmu_2" d="M2824,1282c-77-62-39-177,58-177c53,0,98,47,98,101C2980,1281,2881,1329,2824,1282z"></path> <path class="st0 EkZByLmu_3" d="M3119,4651c-56-56-30-148,47-167c41-11,96,22,110,66C3308,4649,3192,4723,3119,4651z"></path> </g><style data-made-with="vivus-instant">.EkZByLmu_0{stroke-dasharray:41944 41946;stroke-dashoffset:41945;animation:EkZByLmu_draw_0 9600ms ease 0ms infinite,EkZByLmu_fade 9600ms linear 0ms infinite;}.EkZByLmu_1{stroke-dasharray:610 612;stroke-dashoffset:611;animation:EkZByLmu_draw_1 9600ms ease 0ms infinite,EkZByLmu_fade 9600ms linear 0ms infinite;}.EkZByLmu_2{stroke-dasharray:616 618;stroke-dashoffset:617;animation:EkZByLmu_draw_2 9600ms ease 0ms infinite,EkZByLmu_fade 9600ms linear 0ms infinite;}.EkZByLmu_3{stroke-dasharray:611 613;stroke-dashoffset:612;animation:EkZByLmu_draw_3 9600ms ease 0ms infinite,EkZByLmu_fade 9600ms linear 0ms infinite;}@keyframes EkZByLmu_draw{100%{stroke-dashoffset:0;}}@keyframes EkZByLmu_fade{0%{stroke-opacity:1;}98.95833333333333%{stroke-opacity:1;}100%{stroke-opacity:0;}}@keyframes EkZByLmu_draw_0{5.208333333333334%{stroke-dashoffset: 41945}36.45833333333333%{ stroke-dashoffset: 0;}100%{ stroke-dashoffset: 0;}}@keyframes EkZByLmu_draw_1{5.208333333333334%{stroke-dashoffset: 611}36.45833333333333%{ stroke-dashoffset: 0;}100%{ stroke-dashoffset: 0;}}@keyframes EkZByLmu_draw_2{5.208333333333334%{stroke-dashoffset: 617}36.45833333333333%{ stroke-dashoffset: 0;}100%{ stroke-dashoffset: 0;}}@keyframes EkZByLmu_draw_3{5.208333333333334%{stroke-dashoffset: 612}36.45833333333333%{ stroke-dashoffset: 0;}100%{ stroke-dashoffset: 0;}}</style></svg>